<?xml version="1.0" encoding="UTF-8" standalone="no"?>
<!DOCTYPE svg PUBLIC "-//W3C//DTD SVG 1.1//EN" "http://www.w3.org/Graphics/SVG/1.1/DTD/svg11.dtd">
<svg width="100%" height="100%" viewBox="0 0 1434 1462" version="1.1" xmlns="http://www.w3.org/2000/svg" xmlns:xlink="http://www.w3.org/1999/xlink" xml:space="preserve" xmlns:serif="http://www.serif.com/" style="fill-rule:evenodd;clip-rule:evenodd;stroke-linecap:round;stroke-linejoin:round;stroke-miterlimit:1.5;">
    <g id="Artboard1" transform="matrix(0.803731,0,0,1.08614,95.2348,138.03)">
        <rect x="-118.491" y="-127.083" width="1783.11" height="1345.86" style="fill:none;"/>
        <g id="ALLOWED" transform="matrix(1.2442,0,0,0.920692,-131.547,-108.891)">
            <path d="M179.833,964.443L183.729,964.443L183.729,967.309L198.21,967.309L198.21,960.121L223.237,960.121L254.848,929.37L254.848,929.111L255.115,929.111L255.153,929.074L255.153,929.111L548.303,929.111L548.303,936.355L255.089,936.355L223.599,967.205L223.599,967.369L223.432,967.369L223.346,967.454L223.34,967.369L198.547,967.369L198.547,974.02L183.729,974.02L183.729,982.86L157.702,982.86L157.702,964.443L176.442,964.443L176.442,931.149L179.833,931.149L179.833,964.443ZM478.402,1059.12L499.235,1059.12L499.235,1072.15L499.117,1072.15L499.117,1086.29L453.931,1086.29L453.931,1072.09L473.179,1072.09L473.179,1050.03L478.402,1050.03L478.402,1059.12ZM675.947,1337.07L633.472,1337.07L633.472,1235.4L676.252,1235.4L676.252,1315.79L738.116,1315.79L738.116,1341.38L675.947,1341.38L675.947,1337.07ZM579.727,967.934L548.517,936.498L548.517,928.819L580.056,959.789L739.598,959.789L739.598,968.127L580.266,968.127L580.266,968.476L579.919,968.127L579.727,968.127L579.727,967.934ZM1436.4,499.171L1436.4,544.301L1408.89,544.301L1408.89,499.171L1436.4,499.171ZM1336.1,396.937L1336.1,426.45L1313.69,426.45L1313.69,396.937L1336.1,396.937ZM889.616,261.839L889.616,294.235L864.283,294.235L864.283,261.839L889.616,261.839ZM885.829,309.756L885.829,342.032L859.767,342.032L859.767,309.756L885.829,309.756ZM885.53,355.407L885.53,387.138L859.962,387.138L859.962,355.407L885.53,355.407ZM889.616,402.513L889.616,434.774L862.693,434.774L862.693,402.513L889.616,402.513ZM114.115,448.236L114.115,475.534L74.763,475.534L74.763,448.236L114.115,448.236ZM236.887,477.139L236.887,494.26L195.585,494.26L195.585,477.139L236.887,477.139ZM285.82,118.757L285.82,133.93L239.35,133.93L239.35,118.757L285.82,118.757ZM457.911,252.475L457.911,266.71L435.909,266.71L435.909,252.475L457.911,252.475ZM908.815,625.67L908.815,633.923L900.219,633.923L900.219,625.67L908.815,625.67Z" style="fill:rgb(23,241,0);fill-opacity:0.42;stroke:rgb(10,186,0);stroke-width:1.05px;"/>
        </g>
        <g transform="matrix(1.2442,0,0,0.920692,-131.688,-109.143)">
            <path d="M1436.5,803.947L1436.5,1433.79L867.872,1433.79L867.823,1409.75L867.823,1340.25L943.115,1340.25L1011.7,1271.66L1097.66,1271.66L1126.16,1243.16L1126.16,1123.34L1169.6,1082.67L1202.52,1049.75L1202.52,982.685L1160.46,940.619L1074.19,940.619L1016.43,882.854L977.287,803.814L977.278,803.819L977.278,803.795L977.256,803.751L977.278,803.751L977.356,525.834L1042.48,525.834L1042.62,768.43L1042.83,768.43L1042.83,768.65C1045.8,771.194 1077.84,803.713 1077.84,803.713L1076.69,803.751L1195.17,803.751L1227.48,771.443L1436.68,771.77L1436.55,803.947L1436.5,803.947ZM123.84,475.39L114.509,475.446L114.565,435.862L123.261,435.862L123.261,435.859L180.569,435.859L180.569,475.491L123.84,475.39ZM430.506,262.531L408.043,262.531L408.043,259.402L418.055,259.402L418.055,251.767L435.077,251.767L435.077,262.531L435.032,262.531L435.032,273.662L430.506,273.662L430.506,262.531ZM331.101,403.41L267.473,403.41L267.473,397.323L338.896,397.323L338.896,398.016L338.905,398.016L338.905,660.882L331.101,660.882L331.101,403.41ZM232.243,141.555L218.998,141.555L218.998,126.342L237.227,126.342L237.227,179.587L232.243,179.587L232.243,141.555ZM177.408,49.485L151.344,49.485L151.344,35.751L194.847,35.751L194.895,29.464L203.129,29.412L203.13,29.489L222.448,29.489L222.448,29.476L244.759,29.476L244.759,29.484L267.378,29.484L267.378,29.469L300.256,29.469L300.256,45.725L267.444,66.096L267.444,66.344L244.595,68.85L244.595,68.847L222.448,74.583L222.448,74.543L203.843,83.236L203.845,83.374L194.445,87.72L194.537,75.877L177.408,75.877L177.408,49.485ZM622.14,279.899L616.883,279.899L616.883,252.815L629.449,252.815L629.449,279.598L629.499,279.598L629.499,314.593L622.14,314.593L622.14,279.899ZM1336.1,97.981L1267.78,97.981L1267.78,20.92L1437.75,20.92L1437.75,426.815L1438.15,426.815L1438.15,488.607L1436.51,488.607L1436.51,499.299L1358.45,499.299L1358.45,544.967L1437.22,544.967L1437.22,731.709L1358.07,731.709L1358.07,731.654L1315.36,731.654L1315.36,488.204L1315.45,488.204L1315.45,426.815L1336.1,426.815L1336.1,97.981ZM926.857,635.038L927.15,635.038L927.15,639.073L896.488,639.073L896.488,635.038L909.692,635.038L909.692,625.575L926.857,625.575L926.857,635.038ZM679.411,1219.87L679.411,1234.8L633.197,1234.8L633.197,1221.59L633.395,1221.59L633.395,1191.35L693.14,1191.35L693.209,1219.94L679.411,1219.87ZM493.671,1086.83L493.671,1094.35L454.151,1094.35L454.151,1086.83L493.671,1086.83ZM576.564,1201.76L576.564,1254.57L548.229,1254.57L548.368,1201.76L576.564,1201.76ZM676.211,1160.78L676.211,1166.92L621.011,1166.92L621.011,1160.78L676.211,1160.78ZM453.314,1071.98L453.202,1079.96L418.482,1079.96L418.482,1071.98L453.314,1071.98ZM926.857,592.199L926.857,625.209L896.268,625.209L896.268,592.199L926.857,592.199ZM899.569,625.575L899.569,634.818L895.974,634.818L895.974,625.575L899.569,625.575ZM382.727,631.932L382.727,658.669L339.948,658.669L339.948,631.932L382.727,631.932ZM1224.06,405.725L1224.06,422.308L1201.53,422.308L1201.53,405.725L1224.06,405.725ZM74.172,439.534L74.172,475.468L58.435,475.468L58.435,439.534L74.172,439.534Z" style="fill:rgb(255,218,7);fill-opacity:0.49;stroke:rgb(255,195,14);stroke-width:0.82px;"/>
        </g>
    </g>
</svg>
